<svg xmlns="http://www.w3.org/2000/svg" xmlns:xlink="http://www.w3.org/1999/xlink" width="1080" zoomAndPan="magnify" viewBox="0 0 810 1439.999935" height="1920" preserveAspectRatio="xMidYMid meet" version="1.0"><defs><clipPath id="7bcdf22a8b"><path d="M 0 0 L 810 0 L 810 1335 L 0 1335 Z M 0 0 " clip-rule="nonzero"/></clipPath><clipPath id="0d331b9ce8"><path d="M -229.949219 1012.257812 L -8.445312 -109.839844 L 1663.292969 220.167969 L 1441.789062 1342.261719 Z M -229.949219 1012.257812 " clip-rule="nonzero"/></clipPath><clipPath id="dd1a123fa5"><path d="M 0 0 L 810 0 L 810 1031 L 0 1031 Z M 0 0 " clip-rule="nonzero"/></clipPath><clipPath id="8ad77c0c7a"><path d="M -229.949219 1012.257812 L -8.445312 -109.839844 L 1663.292969 220.167969 L 1441.789062 1342.261719 Z M -229.949219 1012.257812 " clip-rule="nonzero"/></clipPath><clipPath id="81216a4452"><path d="M 1442.050781 1342.316406 L 1663.558594 220.21875 L -8.179688 -109.789062 L -229.6875 1012.308594 Z M 1442.050781 1342.316406 " clip-rule="nonzero"/></clipPath><clipPath id="c10363f7b0"><rect x="0" width="810" y="0" height="1335"/></clipPath><clipPath id="f6b2db49dc"><path d="M 0 438 L 442 438 L 442 1256 L 0 1256 Z M 0 438 " clip-rule="nonzero"/></clipPath><clipPath id="3c6e0acf31"><path d="M -181.492188 1378.382812 L -447.589844 542.203125 L 271.382812 313.40625 L 537.480469 1149.585938 Z M -181.492188 1378.382812 " clip-rule="nonzero"/></clipPath><clipPath id="fb8fb3bc9a"><path d="M -181.492188 1378.382812 L -447.589844 542.203125 L 271.382812 313.40625 L 537.480469 1149.585938 Z M -181.492188 1378.382812 " clip-rule="nonzero"/></clipPath><clipPath id="4fd0765dc0"><path d="M 0 758 L 810 758 L 810 1440 L 0 1440 Z M 0 758 " clip-rule="nonzero"/></clipPath><clipPath id="fa3ef4077c"><path d="M -425.84375 1492.132812 L 726.65625 640.105469 L 1363.335938 1501.316406 L 210.835938 2353.339844 Z M -425.84375 1492.132812 " clip-rule="nonzero"/></clipPath><clipPath id="f689c5b457"><path d="M -425.84375 1492.132812 L 726.65625 640.105469 L 1363.335938 1501.316406 L 210.835938 2353.339844 Z M -425.84375 1492.132812 " clip-rule="nonzero"/></clipPath><clipPath id="fcb0c7a174"><path d="M 476 0 L 810 0 L 810 465 L 476 465 Z M 476 0 " clip-rule="nonzero"/></clipPath><clipPath id="c01583ee95"><path d="M 1338.960938 -48.59375 L 841.957031 511.085938 L 405.09375 123.140625 L 902.101562 -436.535156 Z M 1338.960938 -48.59375 " clip-rule="nonzero"/></clipPath><clipPath id="472e8d2b3a"><path d="M 1338.960938 -48.59375 L 841.957031 511.085938 L 405.09375 123.140625 L 902.101562 -436.535156 Z M 1338.960938 -48.59375 " clip-rule="nonzero"/></clipPath><clipPath id="27aad4fc43"><path d="M 0 1063 L 562 1063 L 562 1440 L 0 1440 Z M 0 1063 " clip-rule="nonzero"/></clipPath><clipPath id="d98e9ab312"><path d="M -514.589844 1448.851562 L 53.183594 820.664062 L 676.363281 1383.910156 L 108.59375 2012.097656 Z M -514.589844 1448.851562 " clip-rule="nonzero"/></clipPath><clipPath id="4196c13b46"><path d="M -514.589844 1448.851562 L 53.183594 820.664062 L 676.363281 1383.910156 L 108.59375 2012.097656 Z M -514.589844 1448.851562 " clip-rule="nonzero"/></clipPath></defs><rect x="-81" width="972" fill="#ffffff" y="-143.999994" height="1727.999922" fill-opacity="1"/><rect x="-81" width="972" fill="#ffffff" y="-143.999994" height="1727.999922" fill-opacity="1"/><g clip-path="url(#7bcdf22a8b)"><g clip-path="url(#0d331b9ce8)"><g transform="matrix(1, 0, 0, 1, 0, -0.000000000000101068)"><g clip-path="url(#c10363f7b0)"><g clip-path="url(#dd1a123fa5)"><g clip-path="url(#8ad77c0c7a)"><g clip-path="url(#81216a4452)"><path fill="#00bf63" d="M -217.761719 950.703125 C -172.636719 992.902344 -122.265625 1033.101562 -58.585938 1030.550781 C -7.191406 1028.585938 40.003906 986.457031 81.949219 946.320312 C 115.726562 910.605469 147.738281 871.535156 170.957031 827.699219 C 200.597656 776.042969 220.304688 725.464844 254.046875 677.648438 C 298.238281 613.738281 350.648438 557.5 403.046875 501.269531 C 442.644531 460.65625 483.976562 411.316406 528.855469 380.839844 C 576.671875 347.914062 633.910156 341.046875 686.457031 333.257812 C 746.042969 326.863281 812.636719 321.855469 872.847656 336.769531 C 905.597656 343.234375 932.542969 366.710938 962.984375 384.816406 C 999.273438 410.140625 1039.652344 427.199219 1077.679688 443.785156 C 1116.285156 457.464844 1151.402344 476.484375 1190.007812 490.164062 C 1223.921875 502.910156 1262.492188 504.472656 1299.300781 502.664062 C 1339.015625 498.40625 1381.066406 494.597656 1417.828125 480.660156 C 1447 468.265625 1474.988281 449.582031 1502.976562 430.898438 C 1525.699219 414.203125 1553.117188 398.421875 1575.855469 381.726562 C 1591 366.5625 1604.371094 348.011719 1615.417969 329.007812 C 1634.585938 293.449219 1655.515625 261.269531 1663.566406 220.484375 L -8.457031 -109.578125 Z M -217.761719 950.703125 " fill-opacity="1" fill-rule="nonzero"/></g></g></g></g></g></g></g><path fill="#fff500" d="M 146.613281 359.289062 C 180.847656 358.875 215.082031 361.378906 248.898438 366.804688 C 301.082031 374.738281 354.101562 374.738281 406.289062 367.222656 C 454.296875 359.707031 499.804688 344.261719 544.472656 325.890625 C 577.035156 312.53125 598.328125 287.902344 612.523438 257.425781 C 630.472656 218.601562 646.753906 179.355469 662.621094 139.695312 C 677.230469 103.792969 688.503906 66.636719 708.125 33.238281 C 734.84375 -13.9375 773.253906 -53.597656 819.59375 -81.984375 C 853.824219 -102.441406 887.222656 -123.734375 921.457031 -144.605469 C 946.089844 -159.636719 973.640625 -167.984375 1001.613281 -173.832031 C 1070.082031 -188.023438 1137.710938 -188.023438 1205.761719 -168.820312 C 1285.917969 -146.277344 1363.984375 -117.054688 1439.550781 -81.148438 C 1495.492188 -54.433594 1542.667969 -15.1875 1586.503906 28.230469 C 1610.714844 51.609375 1632.007812 77.910156 1649.542969 106.714844 C 1669.164062 139.277344 1681.269531 176.015625 1683.777344 214.007812 C 1686.699219 254.921875 1687.949219 295.417969 1675.84375 335.078125 C 1652.464844 412.3125 1608.628906 474.515625 1535.570312 511.253906 C 1508.015625 525.449219 1477.539062 535.050781 1447.480469 543.816406 C 1381.101562 563.4375 1318.480469 593.496094 1261.703125 633.15625 C 1218.703125 662.796875 1183.21875 700.789062 1148.566406 740.03125 C 1110.992188 783.03125 1074.671875 826.867188 1035.011719 867.78125 C 977.816406 926.644531 915.195312 979.664062 842.972656 1019.328125 C 801.640625 1041.871094 759.058594 1060.65625 712.71875 1068.589844 C 632.144531 1082.367188 557.414062 1068.589844 492.289062 1016.820312 C 455.550781 988.015625 420.480469 957.539062 384.578125 928.316406 C 352.433594 901.597656 320.285156 875.296875 282.296875 856.925781 C 239.710938 835.21875 192.121094 825.199219 144.527344 827.285156 C 108.625 829.371094 72.722656 833.128906 37.234375 836.050781 C -2.425781 838.976562 -42.085938 838.976562 -81.328125 830.207031 C -151.046875 815.179688 -192.796875 770.925781 -212.417969 704.128906 C -229.953125 642.757812 -221.183594 583.058594 -198.222656 525.03125 C -186.953125 496.640625 -171.085938 470.339844 -151.464844 447.378906 C -124.328125 416.066406 -89.261719 398.117188 -50.4375 385.59375 C -7.433594 371.816406 36.816406 366.386719 81.488281 363.464844 Z M 146.613281 359.289062 " fill-opacity="1" fill-rule="nonzero"/><g clip-path="url(#f6b2db49dc)"><g clip-path="url(#3c6e0acf31)"><g clip-path="url(#fb8fb3bc9a)"><path fill="#ff66c4" d="M 420.914062 788.257812 C 455.445312 891.234375 445.296875 988.707031 392.90625 1081.261719 C 362.742188 1134.527344 322.296875 1179.628906 272.136719 1215.113281 C 224.386719 1248.871094 170.167969 1258.675781 112.835938 1253.898438 C 47.007812 1248.417969 -6.226562 1218.121094 -49.988281 1169.757812 C -79.015625 1137.667969 -100.835938 1101.339844 -115.839844 1060.632812 C -121.417969 1045.496094 -127.214844 1030.355469 -133.269531 1015.371094 C -144.050781 988.726562 -161.984375 967.117188 -182.761719 947.734375 C -194.605469 936.675781 -207.539062 927.015625 -220.972656 917.894531 C -255.089844 894.707031 -288.582031 870.742188 -317.890625 841.367188 C -368.460938 790.679688 -382.0625 729.027344 -363.984375 662.402344 C -340.6875 576.625 -288.433594 511.214844 -206.46875 474.273438 C -141.757812 445.105469 -72.609375 434.9375 -1.527344 440.304688 C 79.855469 446.4375 152.574219 475.921875 218.53125 522.945312 C 292.824219 575.890625 352.164062 642.222656 394.902344 723.027344 C 406.136719 744.269531 414.472656 766.8125 420.914062 788.257812 Z M 420.914062 788.257812 " fill-opacity="1" fill-rule="nonzero"/></g></g></g><g clip-path="url(#4fd0765dc0)"><g clip-path="url(#fa3ef4077c)"><g clip-path="url(#f689c5b457)"><path fill="#1800ad" d="M -288.589844 1635.082031 C -275.824219 1688.183594 -245.636719 1735.523438 -195.179688 1765.351562 C -64.179688 1842.8125 29.710938 1734.53125 151.785156 1705.59375 C 222.773438 1688.765625 297.425781 1710.527344 363.394531 1741.703125 C 429.335938 1772.878906 490.917969 1813.632812 559.5625 1838.363281 C 687.769531 1884.546875 836.65625 1869.128906 952.6875 1797.640625 C 999.765625 1768.65625 1042.070312 1730.257812 1069.210938 1682.082031 C 1096.351562 1633.902344 1107.207031 1575.320312 1092.15625 1522.113281 C 1078.136719 1472.496094 1042.683594 1428.65625 1020.375 1381.96875 C 976.328125 1289.777344 966.738281 1192.144531 951.601562 1092.425781 C 936.28125 991.394531 907.597656 884.941406 830.40625 817.988281 C 751.265625 749.332031 627.175781 738.679688 537.488281 792.855469 C 446.214844 847.984375 400.605469 953.054688 336.886719 1038.539062 C 263.875 1136.464844 161.808594 1212.460938 47.058594 1254.328125 C -41.292969 1286.566406 -140.824219 1301.292969 -209.703125 1365.351562 C -279.601562 1430.359375 -311.0625 1541.644531 -288.589844 1635.082031 " fill-opacity="1" fill-rule="nonzero"/></g></g></g><g clip-path="url(#fcb0c7a174)"><g clip-path="url(#c01583ee95)"><g clip-path="url(#472e8d2b3a)"><path fill="#ff3131" d="M 536.269531 -23.195312 C 539.179688 -26.472656 542.003906 -29.855469 545.003906 -33.035156 C 549.527344 -37.804688 554.136719 -42.484375 558.832031 -47.074219 L 567.121094 -55.148438 C 569.433594 -57.402344 571.882812 -59.507812 574.28125 -61.679688 L 579.1875 -66.023438 C 588.359375 -74.355469 598.558594 -81.152344 609.78125 -86.410156 C 619.398438 -90.761719 629.308594 -94.335938 639.222656 -97.914062 C 648.542969 -101.300781 657.980469 -104.320312 667.429688 -107.324219 C 673.796875 -109.34375 680.191406 -111.273438 686.527344 -113.359375 C 696.253906 -116.589844 705.648438 -120.597656 714.710938 -125.378906 C 722.28125 -129.394531 729.441406 -134.042969 736.191406 -139.320312 C 740.84375 -142.851562 745.246094 -146.675781 749.390625 -150.792969 C 751.769531 -152.988281 754.007812 -155.324219 756.097656 -157.792969 C 758.273438 -160.570312 760.421875 -163.390625 762.457031 -166.289062 C 771.398438 -178.867188 777.703125 -192.898438 783.613281 -206.988281 C 785.511719 -211.636719 787.398438 -216.273438 789.40625 -220.847656 C 793.101562 -229.269531 797.308594 -237.425781 802.035156 -245.316406 C 805.203125 -250.714844 808.660156 -255.917969 812.160156 -261.085938 C 814.035156 -263.878906 816.273438 -266.601562 818.40625 -269.300781 C 820.074219 -271.433594 822.003906 -273.355469 823.472656 -275.664062 C 824.117188 -276.625 824.875 -277.480469 825.753906 -278.230469 C 828.742188 -280.867188 831.214844 -283.976562 834 -286.8125 C 842.132812 -295.289062 851.285156 -302.460938 861.453125 -308.335938 C 868.1875 -312.199219 875.359375 -314.902344 882.972656 -316.441406 C 887.488281 -317.316406 892.046875 -317.730469 896.648438 -317.675781 C 909.308594 -317.390625 921.839844 -315.980469 934.242188 -313.445312 C 943.65625 -311.664062 953.070312 -309.527344 962.492188 -307.582031 C 974.441406 -305.113281 986.398438 -302.679688 998.371094 -300.257812 C 1008.347656 -298.316406 1018 -295.320312 1027.324219 -291.273438 C 1034.464844 -288.070312 1041.410156 -284.488281 1048.152344 -280.519531 C 1056.425781 -275.691406 1064.644531 -270.78125 1072.90625 -265.917969 C 1084.472656 -259.085938 1096.046875 -252.261719 1107.636719 -245.449219 C 1112.410156 -242.664062 1117.265625 -240.019531 1121.984375 -237.171875 C 1126.703125 -234.320312 1131.441406 -231.117188 1136.003906 -227.84375 C 1141.617188 -223.648438 1146.921875 -219.097656 1151.914062 -214.183594 C 1154.714844 -211.5625 1157.328125 -208.703125 1159.921875 -205.847656 C 1164.796875 -200.40625 1169.273438 -194.660156 1173.359375 -188.605469 C 1180.648438 -177.816406 1186.195312 -166.199219 1190.003906 -153.75 C 1191.765625 -148.253906 1192.804688 -142.625 1193.121094 -136.863281 C 1193.269531 -133.410156 1193.117188 -129.972656 1192.65625 -126.546875 C 1191.402344 -116.332031 1188.765625 -106.484375 1184.757812 -97.003906 C 1182.460938 -91.730469 1179.613281 -86.769531 1176.226562 -82.121094 C 1171.019531 -74.898438 1164.753906 -68.597656 1158.796875 -62.042969 C 1157.070312 -60.097656 1155.082031 -58.382812 1153.390625 -56.382812 C 1149.496094 -51.769531 1145.597656 -47.15625 1142.113281 -42.199219 C 1140.847656 -40.421875 1139.523438 -38.679688 1138.246094 -36.890625 C 1133.234375 -29.808594 1128.773438 -22.394531 1124.855469 -14.652344 C 1117.738281 -0.722656 1112.386719 13.859375 1108.808594 29.085938 C 1106.722656 37.917969 1104.875 46.804688 1103.160156 55.71875 C 1100.863281 69 1097.875 82.121094 1094.1875 95.082031 C 1091.566406 103.660156 1088.679688 112.160156 1085.347656 120.488281 C 1081.375 130.589844 1076.808594 140.414062 1071.640625 149.960938 C 1068.273438 156.089844 1064.558594 161.980469 1060.648438 167.765625 C 1054.304688 177.144531 1046.65625 185.40625 1039.042969 193.726562 C 1035.984375 196.09375 1033.652344 199.21875 1030.644531 201.675781 C 1028.875 203.117188 1027.257812 204.761719 1025.566406 206.3125 C 1021.859375 209.710938 1017.820312 212.953125 1013.816406 216.132812 C 1006.808594 221.6875 999.78125 227.242188 992.671875 232.683594 C 989.019531 235.464844 985.523438 238.425781 982.011719 241.375 C 980.179688 242.765625 978.507812 244.332031 976.996094 246.066406 C 975.058594 248.148438 973.503906 250.484375 972.332031 253.074219 C 969.820312 259.921875 966.851562 266.609375 965.15625 273.714844 C 964.859375 275.03125 964.59375 276.359375 964.378906 277.707031 C 964.039062 280.292969 963.484375 282.835938 962.714844 285.332031 C 961.734375 288.980469 961.253906 292.695312 961.273438 296.472656 C 961.230469 298.878906 960.898438 301.246094 960.277344 303.574219 C 958.011719 310.972656 956.535156 318.5625 954.976562 326.121094 C 953.96875 331.023438 952.9375 335.953125 951.507812 340.726562 C 950.382812 344.503906 949.601562 348.425781 948.765625 352.300781 C 947.933594 356.179688 946.945312 359.804688 945.753906 363.480469 C 945.140625 365.367188 944.628906 367.285156 944.21875 369.230469 C 943.15625 374.007812 941.667969 378.652344 939.765625 383.160156 C 937.996094 387.390625 936.320312 391.660156 934.566406 395.898438 C 932.679688 400.3125 930.496094 404.570312 928.011719 408.679688 C 926.015625 412.105469 924.121094 415.574219 922.320312 419.105469 C 921.664062 420.300781 920.878906 421.402344 919.964844 422.410156 C 916.777344 426.003906 913.585938 429.59375 910.398438 433.1875 C 909.085938 434.542969 907.648438 435.75 906.085938 436.808594 C 904.007812 438.371094 902.035156 440.0625 900.175781 441.882812 C 895.007812 446.820312 889.222656 450.871094 882.820312 454.042969 C 875.839844 457.472656 868.515625 459.804688 860.835938 461.039062 C 852.492188 462.414062 844.097656 463.363281 835.652344 463.878906 C 829.433594 464.300781 823.246094 464.007812 817.09375 463 C 810.9375 461.992188 804.980469 460.296875 799.222656 457.914062 C 790.566406 454.414062 782.203125 450.320312 774.132812 445.628906 C 769.617188 443.023438 765.257812 440.175781 760.914062 437.304688 C 758.394531 435.644531 756.09375 433.667969 753.613281 431.933594 C 747.082031 427.058594 740.898438 421.769531 735.070312 416.070312 C 731.324219 412.605469 727.796875 408.917969 724.289062 405.179688 C 721.289062 402.003906 718.367188 398.738281 715.546875 395.410156 C 712.292969 391.539062 709.171875 387.515625 706.074219 383.472656 C 698.292969 372.992188 691.308594 361.996094 684.484375 350.917969 C 680.074219 343.703125 675.65625 336.519531 670.828125 329.578125 C 664.292969 320.191406 657.546875 310.933594 650.597656 301.800781 C 646.484375 296.382812 642.277344 290.84375 638.070312 285.410156 C 635.652344 282.28125 633.050781 279.28125 630.515625 276.339844 C 624.558594 269.453125 618.007812 263.191406 610.863281 257.550781 C 606.441406 254.066406 602.355469 250.152344 597.625 247.066406 C 597.238281 246.722656 596.839844 246.367188 596.398438 246.085938 C 592.234375 242.613281 587.875 239.386719 583.503906 236.195312 C 580.539062 234.054688 577.71875 231.730469 574.792969 229.554688 C 571.863281 227.375 568.742188 225.140625 565.726562 222.910156 C 563.613281 221.367188 561.601562 219.714844 559.480469 218.210938 C 555.992188 215.734375 552.765625 212.914062 549.328125 210.355469 C 540.179688 203.234375 531.425781 195.664062 523.066406 187.636719 C 519.378906 184.25 516.015625 180.503906 512.519531 176.90625 C 510.40625 174.742188 508.335938 172.546875 506.246094 170.355469 C 499.722656 163.730469 493.890625 156.542969 488.746094 148.796875 C 485.097656 143.027344 482.410156 136.84375 480.6875 130.242188 C 478.757812 123.300781 477.503906 116.238281 476.925781 109.058594 C 476.457031 101.933594 476.949219 94.875 478.402344 87.882812 C 480.292969 78.84375 482.917969 70.027344 486.28125 61.425781 C 492.089844 46.203125 498.925781 31.457031 506.789062 17.183594 C 509.402344 12.433594 512.234375 7.835938 515.191406 3.277344 C 517.863281 -0.839844 520.921875 -4.65625 523.632812 -8.742188 C 524.117188 -9.421875 524.644531 -10.070312 525.21875 -10.679688 Z M 536.269531 -23.195312 " fill-opacity="1" fill-rule="nonzero"/></g></g></g><g clip-path="url(#27aad4fc43)"><g clip-path="url(#d98e9ab312)"><g clip-path="url(#4196c13b46)"><path fill="#f85f00" d="M 435.253906 1205.957031 C 529.382812 1250.875 583.039062 1362.070312 552.960938 1450.957031 C 519.9375 1548.839844 332.828125 1612.386719 258.140625 1695.023438 C 183.453125 1777.660156 206.558594 1903.734375 103.464844 1909.011719 C 0.375 1914.289062 -22.914062 1721.335938 -105.621094 1646.582031 C -188.328125 1571.828125 -243.648438 1625.722656 -319.980469 1526.289062 C -382.84375 1444.339844 -386.566406 1312.726562 -216.351562 1235.335938 C -98.75 1181.898438 -90.644531 980.011719 62.675781 1102.910156 C 262.511719 1295.316406 304.734375 1141.105469 435.253906 1205.957031 Z M 435.253906 1205.957031 " fill-opacity="1" fill-rule="nonzero"/></g></g></g></svg>